<svg width="14" height="10" viewBox="0 0 14 10" fill="none" xmlns="http://www.w3.org/2000/svg">
<g clip-path="url(#clip0_273_24)">
<path fill-rule="evenodd" clip-rule="evenodd" d="M0 0H19V0.770833H0V0ZM0 1.53958H19V2.31042H0V1.53958ZM0 3.07708H19V3.84792H0V3.07708ZM0 4.61458H19V5.38542H0V4.61458ZM0 6.15625H19V6.92292H0V6.15625ZM0 7.69167H19V8.4625H0V7.69167ZM0 9.22917H19V10H0V9.22917Z" fill="#BD3D44"/>
<path fill-rule="evenodd" clip-rule="evenodd" d="M0 0.770996H19V1.53975H0V0.770996ZM0 2.3085H19V3.07725H0V2.3085ZM0 3.846H19V4.61683H0V3.846ZM0 5.38558H19V6.15641H0V5.38558ZM0 6.92308H19V7.69391H0V6.92308ZM0 8.46058H19V9.23141H0V8.46058Z" fill="white"/>
<path fill-rule="evenodd" clip-rule="evenodd" d="M0 0H7.6V5.38542H0V0Z" fill="#192F5D"/>
<path fill-rule="evenodd" clip-rule="evenodd" d="M0.63335 0.229004L0.704183 0.443587H0.925016L0.74585 0.574837L0.814599 0.789421L0.63335 0.656087L0.454183 0.787337L0.52085 0.574837L0.3396 0.443587H0.566683L0.63335 0.229004ZM1.90002 0.229004L1.96877 0.443587H2.19377L2.01252 0.574837L2.07918 0.789421L1.90002 0.656087L1.71877 0.787337L1.78752 0.574837L1.60835 0.443587H1.82918L1.90002 0.229004ZM3.16668 0.229004L3.23543 0.443587H3.45835L3.27918 0.574837L3.34793 0.789421L3.16668 0.656087L2.98543 0.787337L3.05418 0.574837L2.87293 0.443587H3.09793L3.16668 0.229004ZM4.43335 0.229004L4.5021 0.443587H4.7271L4.54585 0.574837L4.6146 0.789421L4.43335 0.656087L4.2521 0.787337L4.32293 0.574837L4.1396 0.443587H4.36251L4.43335 0.229004ZM5.70002 0.229004L5.76876 0.443587H5.99168L5.81252 0.574837L5.88127 0.789421L5.70002 0.656087L5.51876 0.787337L5.58752 0.574837L5.40835 0.443587H5.63126L5.70002 0.229004ZM6.96668 0.229004L7.03543 0.443587H7.26043L7.0771 0.574837L7.14793 0.789421L6.96668 0.656087L6.78543 0.787337L6.85627 0.574837L6.67293 0.443587H6.89793L6.96668 0.229004ZM1.26668 0.770671L1.33543 0.983171H1.56252L1.38127 1.11234L1.44793 1.32692L1.27085 1.19567L1.0896 1.32692L1.15418 1.11234L0.979183 0.983171H1.2021L1.26668 0.770671ZM2.53335 0.770671L2.60418 0.983171H2.8271L2.64377 1.11234L2.7146 1.32692L2.53335 1.19567L2.3521 1.32692L2.42085 1.11234L2.2396 0.983171H2.4646L2.53335 0.770671ZM3.80002 0.770671L3.86877 0.983171H4.09377L3.91252 1.11234L3.98127 1.32692L3.80002 1.19567L3.61877 1.32692L3.68752 1.11234L3.50835 0.983171H3.72918L3.80002 0.770671ZM5.06668 0.770671L5.13752 0.983171H5.36043L5.1771 1.11234L5.24793 1.32692L5.06668 1.19567L4.88752 1.32692L4.95418 1.11234L4.77293 0.983171H5.00002L5.06668 0.770671ZM6.33335 0.770671L6.4021 0.983171H6.6271L6.44585 1.11234L6.5146 1.32692L6.33335 1.19567L6.1521 1.32692L6.22085 1.11234L6.04168 0.983171H6.2646L6.33335 0.770671ZM0.63335 1.304L0.704183 1.52067H0.925016L0.74585 1.65192L0.814599 1.86442L0.63335 1.73317L0.454183 1.86442L0.52085 1.65192L0.3396 1.52067H0.566683L0.63335 1.304ZM1.90002 1.304L1.96877 1.52067H2.19377L2.01252 1.65192L2.07918 1.86442L1.90002 1.73317L1.71877 1.86442L1.78752 1.64984L1.60835 1.51859H1.82918L1.90002 1.304ZM3.16668 1.304L3.23543 1.51859H3.45835L3.27918 1.64984L3.34793 1.86234L3.16668 1.73109L2.98543 1.86234L3.05418 1.64775L2.87293 1.5165H3.09793L3.16668 1.304ZM4.43335 1.304L4.5021 1.51859H4.7271L4.54585 1.64984L4.6146 1.86234L4.43335 1.73109L4.2521 1.86234L4.32293 1.64775L4.1396 1.5165H4.36251L4.43335 1.304ZM5.70002 1.304L5.76876 1.51859H5.99168L5.81252 1.64984L5.88127 1.86234L5.70002 1.73109L5.51876 1.86234L5.58752 1.64775L5.40835 1.5165H5.63126L5.70002 1.304ZM6.96668 1.304L7.03543 1.51859H7.26043L7.0771 1.64984L7.14793 1.86234L6.96668 1.73109L6.78543 1.86234L6.85627 1.64775L6.67293 1.5165H6.89793L6.96668 1.304ZM1.26668 1.84567L1.33543 2.05817H1.56252L1.38127 2.18942L1.45002 2.404L1.26877 2.27067L1.08752 2.40192L1.15627 2.18942L0.977099 2.05817H1.20002L1.26668 1.84567ZM2.53335 1.84567L2.60418 2.05817H2.8271L2.64377 2.18942L2.7146 2.404L2.53335 2.27067L2.3521 2.40192L2.42085 2.18942L2.2396 2.05817H2.4646L2.53335 1.84567ZM3.80002 1.84567L3.86877 2.05817H4.09377L3.91252 2.18942L3.98127 2.404L3.80002 2.27067L3.61877 2.40192L3.68752 2.18942L3.50835 2.05817H3.72918L3.80002 1.84567ZM5.06668 1.84567L5.13752 2.05817H5.36043L5.17918 2.18942L5.24793 2.404L5.06668 2.27067L4.88752 2.40192L4.95418 2.18942L4.77293 2.05817H5.00002L5.06668 1.84567ZM6.33335 1.84567L6.4021 2.05817H6.6271L6.44585 2.18942L6.5146 2.404L6.33335 2.27067L6.1521 2.40192L6.22085 2.18942L6.04168 2.05817H6.2646L6.33335 1.84567ZM0.63335 2.38525L0.704183 2.59775H0.925016L0.74585 2.729L0.814599 2.94359L0.63335 2.81025L0.454183 2.9415L0.52085 2.729L0.3396 2.59775H0.566683L0.63335 2.38525ZM1.90002 2.38525L1.96877 2.59775H2.19377L2.01252 2.729L2.07918 2.9415L1.90002 2.81025L1.71877 2.9415L1.78752 2.729L1.60835 2.59775H1.82918L1.90002 2.38525ZM3.16668 2.38525L3.23543 2.59775H3.45835L3.27918 2.729L3.34793 2.94359L3.16668 2.81025L2.98543 2.9415L3.05418 2.729L2.87293 2.59775H3.09793L3.16668 2.38525ZM4.43335 2.38525L4.5021 2.59775H4.7271L4.54585 2.729L4.6146 2.94359L4.43335 2.81025L4.2521 2.9415L4.32293 2.729L4.1396 2.59775H4.36251L4.43335 2.38525ZM5.70002 2.38525L5.76876 2.59775H5.99168L5.81252 2.729L5.88127 2.94359L5.70002 2.81025L5.51876 2.9415L5.58752 2.729L5.40835 2.59775H5.63126L5.70002 2.38525ZM6.96668 2.38525L7.03543 2.59775H7.26043L7.0771 2.729L7.14793 2.94359L6.96668 2.81025L6.78543 2.9415L6.85418 2.729L6.67085 2.59775H6.89585L6.96668 2.38525ZM1.26668 2.92275L1.33543 3.13734H1.56252L1.38127 3.2665L1.45002 3.48109L1.26877 3.34775L1.08752 3.48109L1.15627 3.2665L0.977099 3.13525H1.20002L1.26668 2.92275ZM2.53335 2.92275L2.60418 3.13734H2.8271L2.64377 3.2665L2.7146 3.48109L2.53335 3.34775L2.3521 3.48109L2.42085 3.2665L2.2396 3.13525H2.4646L2.53335 2.92275ZM3.80002 2.92275L3.86877 3.13734H4.09377L3.91252 3.2665L3.98127 3.48109L3.80002 3.34775L3.61877 3.48109L3.68752 3.2665L3.50835 3.13525H3.72918L3.80002 2.92275ZM5.06668 2.92275L5.13752 3.13734H5.36043L5.17918 3.2665L5.24793 3.48109L5.06668 3.34775L4.88752 3.48109L4.95418 3.2665L4.77293 3.13525H5.00002L5.06668 2.92275ZM6.33335 2.92275L6.4021 3.13734H6.6271L6.44585 3.2665L6.5146 3.48109L6.33335 3.34775L6.1521 3.48109L6.22085 3.2665L6.04168 3.13525H6.2646L6.33335 2.92275ZM0.63335 3.46025L0.704183 3.67484H0.925016L0.74585 3.80609L0.814599 4.0165L0.63335 3.88734L0.454183 4.0165L0.52085 3.804L0.3396 3.67275H0.566683L0.63335 3.46025ZM1.90002 3.46025L1.96877 3.67484H2.19377L2.01252 3.80609L2.08127 4.0165L1.90002 3.88734L1.71877 4.0165L1.7896 3.804L1.60835 3.67275H1.82918L1.90002 3.46025ZM3.16668 3.46025L3.23543 3.67484H3.45835L3.27918 3.80609L3.34793 4.0165L3.16668 3.88734L2.98543 4.0165L3.05418 3.804L2.87293 3.67275H3.09793L3.16668 3.46025ZM4.43335 3.46025L4.5021 3.67484H4.7271L4.54585 3.80609L4.6146 4.0165L4.43335 3.88734L4.2521 4.0165L4.32293 3.804L4.1396 3.67275H4.36251L4.43335 3.46025ZM5.70002 3.46025L5.76876 3.67484H5.99168L5.81252 3.80609L5.88127 4.0165L5.70002 3.88734L5.51876 4.0165L5.58752 3.804L5.40835 3.67275H5.63126L5.70002 3.46025ZM6.96668 3.46025L7.03543 3.67484H7.26043L7.0771 3.80609L7.14793 4.0165L6.96668 3.88734L6.78543 4.0165L6.85627 3.804L6.67293 3.67275H6.89793L6.96668 3.46025ZM1.26668 3.99984L1.33543 4.21234H1.56252L1.38127 4.34359L1.45002 4.55817L1.26877 4.42484L1.08752 4.55609L1.15627 4.34359L0.977099 4.21234H1.20002L1.26668 3.99984ZM2.53335 3.99984L2.60418 4.21234H2.8271L2.64377 4.34359L2.7146 4.55817L2.53335 4.42484L2.3521 4.55609L2.42085 4.34359L2.2396 4.21234H2.4646L2.53335 3.99984ZM3.80002 3.99984L3.86877 4.21234H4.09377L3.91252 4.34359L3.98127 4.55817L3.80002 4.42484L3.61877 4.55609L3.68752 4.34359L3.50835 4.21234H3.72918L3.80002 3.99984ZM5.06668 3.99984L5.13752 4.21234H5.36043L5.17918 4.34359L5.24793 4.55817L5.06668 4.42484L4.88752 4.55609L4.95418 4.34359L4.77293 4.21234H5.00002L5.06668 3.99984ZM6.33335 3.99984L6.4021 4.21234H6.6271L6.44585 4.34359L6.5146 4.55817L6.33335 4.42484L6.1521 4.55609L6.22085 4.34359L6.04168 4.21234H6.2646L6.33335 3.99984ZM0.63335 4.53942L0.704183 4.75192H0.925016L0.74585 4.88317L0.814599 5.09567L0.63335 4.96442L0.454183 5.09567L0.52085 4.88109L0.3396 4.74984H0.566683L0.63335 4.53942ZM1.90002 4.53942L1.96877 4.75192H2.19377L2.01252 4.88317L2.08127 5.09567L1.90002 4.96442L1.71877 5.09567L1.7896 4.88109L1.60835 4.74984H1.82918L1.90002 4.53942ZM3.16668 4.53942L3.23543 4.75192H3.45835L3.28335 4.88317L3.3521 5.09567L3.17085 4.96442L2.9896 5.09567L3.05835 4.88109L2.8771 4.74984H3.1021L3.16668 4.53942ZM4.43335 4.53942L4.5021 4.75192H4.7271L4.54585 4.88317L4.6146 5.09567L4.43335 4.96442L4.2521 5.09567L4.32293 4.88109L4.1396 4.74984H4.36251L4.43335 4.53942ZM5.70002 4.53942L5.76876 4.75192H5.99168L5.81252 4.88317L5.88127 5.09567L5.70002 4.96442L5.51876 5.09567L5.58752 4.88109L5.40835 4.74984H5.63126L5.70002 4.53942ZM6.96668 4.53942L7.03543 4.75192H7.26043L7.0771 4.88317L7.14793 5.09567L6.96668 4.96442L6.78543 5.09567L6.85627 4.88109L6.67293 4.74984H6.89793L6.96668 4.53942Z" fill="white"/>
</g>
<defs>
<clipPath id="clip0_273_24">
<rect width="13.3333" height="10" rx="2" fill="white"/>
</clipPath>
</defs>
</svg>
